<svg width="106" height="471" viewBox="0 0 106 471" fill="none" xmlns="http://www.w3.org/2000/svg">
<mask id="mask0" mask-type="alpha" maskUnits="userSpaceOnUse" x="-1" y="0" width="108" height="472">
<path d="M67.2606 471L106.001 432.26L106.001 453.608L88.6082 471L67.2606 471Z" fill="#212121"/>
<path d="M26.2606 471L106.001 391.26L106.001 412.608L47.6083 471L26.2606 471Z" fill="#212121"/>
<path d="M0.000534374 118.303L106.001 12.3029L106.001 33.6508L0.000532508 139.651L0.000534374 118.303Z" fill="#212121"/>
<path d="M0.000541717 34.3031L33.3046 0.998224L54.6524 0.998225L0.000539851 55.6508L0.000541717 34.3031Z" fill="#212121"/>
<path d="M0.000538046 76.3031L75.3047 0.998227L96.6524 0.998229L0.000536179 97.6508L0.000538046 76.3031Z" fill="#212121"/>
<path d="M0.000530702 160.303L106.001 54.3031L106.001 75.6507L0.000536465 181.651L0.000530702 160.303Z" fill="#212121"/>
<path d="M0.00052703 202.303L106.001 96.3031L106.001 117.651L0.000532793 223.651L0.00052703 202.303Z" fill="#212121"/>
<path d="M0.000538617 244.303L106.001 138.303L106.001 159.651L0.000529122 265.65L0.000538617 244.303Z" fill="#212121"/>
<path d="M0.000527316 286.303L106.001 180.303L106.001 201.651L0.00052545 307.65L0.000527316 286.303Z" fill="#212121"/>
<path d="M0.000538903 328.303L106.001 222.303L106.001 243.65L0.000537037 349.65L0.000538903 328.303Z" fill="#212121"/>
<path d="M0.000527602 370.303L106.001 264.303L106.001 285.65L0.000525736 391.65L0.000527602 370.303Z" fill="#212121"/>
<path d="M0.000539189 412.303L106.001 306.303L106.001 327.65L0.000537323 433.65L0.000539189 412.303Z" fill="#212121"/>
<path d="M0.00058889 454.682L106.001 348.682L106.001 370.03C66.3117 409.719 43.3407 432.69 5.03049 471C3 471 1.5 471 -0.000144958 471L0.00058889 454.682Z" fill="#212121"/>
<path d="M0.000544096 7.09466L0.000544629 0.998587L12.3251 0.999076L0.000543551 13.3238L0.000544096 7.09466Z" fill="#212121"/>
</mask>
<g mask="url(#mask0)">
<rect x="-0.000610352" y="0.999725" width="106" height="470" fill="#FAFAFA" fill-opacity="0.15"/>
</g>
</svg>
