<svg width="440" height="602" viewBox="0 0 440 602" fill="none" xmlns="http://www.w3.org/2000/svg">
<circle cx="4" cy="4" r="4" fill="#FAFAFA" fill-opacity="0.15"/>
<circle cx="4" cy="22" r="4" fill="#FAFAFA" fill-opacity="0.15"/>
<circle cx="4" cy="40" r="4" fill="#FAFAFA" fill-opacity="0.15"/>
<circle cx="4" cy="58" r="4" fill="#FAFAFA" fill-opacity="0.15"/>
<circle cx="4" cy="76" r="4" fill="#FAFAFA" fill-opacity="0.15"/>
<circle cx="4" cy="94" r="4" fill="#FAFAFA" fill-opacity="0.15"/>
<circle cx="4" cy="220" r="4" fill="#FAFAFA" fill-opacity="0.15"/>
<circle cx="4" cy="238" r="4" fill="#FAFAFA" fill-opacity="0.15"/>
<circle cx="4" cy="256" r="4" fill="#FAFAFA" fill-opacity="0.15"/>
<circle cx="4" cy="274" r="4" fill="#FAFAFA" fill-opacity="0.15"/>
<circle cx="4" cy="292" r="4" fill="#FAFAFA" fill-opacity="0.15"/>
<circle cx="4" cy="310" r="4" fill="#FAFAFA" fill-opacity="0.15"/>
<circle cx="4" cy="112" r="4" fill="#FAFAFA" fill-opacity="0.15"/>
<circle cx="4" cy="130" r="4" fill="#FAFAFA" fill-opacity="0.15"/>
<circle cx="4" cy="148" r="4" fill="#FAFAFA" fill-opacity="0.15"/>
<circle cx="4" cy="166" r="4" fill="#FAFAFA" fill-opacity="0.15"/>
<circle cx="4" cy="184" r="4" fill="#FAFAFA" fill-opacity="0.15"/>
<circle cx="4" cy="202" r="4" fill="#FAFAFA" fill-opacity="0.15"/>
<circle cx="22" cy="22" r="4" fill="#FAFAFA" fill-opacity="0.15"/>
<circle cx="22" cy="40" r="4" fill="#FAFAFA" fill-opacity="0.15"/>
<circle cx="22" cy="58" r="4" fill="#FAFAFA" fill-opacity="0.15"/>
<circle cx="22" cy="76" r="4" fill="#FAFAFA" fill-opacity="0.15"/>
<circle cx="22" cy="94" r="4" fill="#FAFAFA" fill-opacity="0.15"/>
<circle cx="22" cy="112" r="4" fill="#FAFAFA" fill-opacity="0.15"/>
<circle cx="22" cy="238" r="4" fill="#FAFAFA" fill-opacity="0.15"/>
<circle cx="22" cy="256" r="4" fill="#FAFAFA" fill-opacity="0.15"/>
<circle cx="22" cy="274" r="4" fill="#FAFAFA" fill-opacity="0.15"/>
<circle cx="22" cy="292" r="4" fill="#FAFAFA" fill-opacity="0.15"/>
<circle cx="22" cy="310" r="4" fill="#FAFAFA" fill-opacity="0.15"/>
<circle cx="22" cy="328" r="4" fill="#FAFAFA" fill-opacity="0.15"/>
<circle cx="22" cy="130" r="4" fill="#FAFAFA" fill-opacity="0.15"/>
<circle cx="22" cy="148" r="4" fill="#FAFAFA" fill-opacity="0.15"/>
<circle cx="22" cy="166" r="4" fill="#FAFAFA" fill-opacity="0.15"/>
<circle cx="22" cy="184" r="4" fill="#FAFAFA" fill-opacity="0.15"/>
<circle cx="22" cy="202" r="4" fill="#FAFAFA" fill-opacity="0.15"/>
<circle cx="22" cy="220" r="4" fill="#FAFAFA" fill-opacity="0.15"/>
<circle cx="40" cy="22" r="4" fill="#FAFAFA" fill-opacity="0.15"/>
<circle cx="40" cy="40" r="4" fill="#FAFAFA" fill-opacity="0.15"/>
<circle cx="40" cy="58" r="4" fill="#FAFAFA" fill-opacity="0.15"/>
<circle cx="40" cy="76" r="4" fill="#FAFAFA" fill-opacity="0.15"/>
<circle cx="40" cy="94" r="4" fill="#FAFAFA" fill-opacity="0.15"/>
<circle cx="40" cy="112" r="4" fill="#FAFAFA" fill-opacity="0.15"/>
<circle cx="40" cy="238" r="4" fill="#FAFAFA" fill-opacity="0.15"/>
<circle cx="40" cy="256" r="4" fill="#FAFAFA" fill-opacity="0.15"/>
<circle cx="40" cy="274" r="4" fill="#FAFAFA" fill-opacity="0.15"/>
<circle cx="40" cy="292" r="4" fill="#FAFAFA" fill-opacity="0.15"/>
<circle cx="40" cy="310" r="4" fill="#FAFAFA" fill-opacity="0.15"/>
<circle cx="40" cy="328" r="4" fill="#FAFAFA" fill-opacity="0.15"/>
<circle cx="40" cy="130" r="4" fill="#FAFAFA" fill-opacity="0.15"/>
<circle cx="40" cy="148" r="4" fill="#FAFAFA" fill-opacity="0.15"/>
<circle cx="40" cy="166" r="4" fill="#FAFAFA" fill-opacity="0.15"/>
<circle cx="40" cy="184" r="4" fill="#FAFAFA" fill-opacity="0.15"/>
<circle cx="40" cy="202" r="4" fill="#FAFAFA" fill-opacity="0.15"/>
<circle cx="40" cy="220" r="4" fill="#FAFAFA" fill-opacity="0.15"/>
<circle cx="58" cy="40" r="4" fill="#FAFAFA" fill-opacity="0.15"/>
<circle cx="58" cy="58" r="4" fill="#FAFAFA" fill-opacity="0.15"/>
<circle cx="58" cy="76" r="4" fill="#FAFAFA" fill-opacity="0.15"/>
<circle cx="58" cy="94" r="4" fill="#FAFAFA" fill-opacity="0.15"/>
<circle cx="58" cy="112" r="4" fill="#FAFAFA" fill-opacity="0.15"/>
<circle cx="58" cy="130" r="4" fill="#FAFAFA" fill-opacity="0.15"/>
<circle cx="58" cy="256" r="4" fill="#FAFAFA" fill-opacity="0.15"/>
<circle cx="58" cy="274" r="4" fill="#FAFAFA" fill-opacity="0.15"/>
<circle cx="58" cy="292" r="4" fill="#FAFAFA" fill-opacity="0.15"/>
<circle cx="58" cy="310" r="4" fill="#FAFAFA" fill-opacity="0.15"/>
<circle cx="58" cy="328" r="4" fill="#FAFAFA" fill-opacity="0.15"/>
<circle cx="58" cy="346" r="4" fill="#FAFAFA" fill-opacity="0.15"/>
<circle cx="58" cy="148" r="4" fill="#FAFAFA" fill-opacity="0.15"/>
<circle cx="58" cy="166" r="4" fill="#FAFAFA" fill-opacity="0.15"/>
<circle cx="58" cy="184" r="4" fill="#FAFAFA" fill-opacity="0.15"/>
<circle cx="58" cy="202" r="4" fill="#FAFAFA" fill-opacity="0.15"/>
<circle cx="58" cy="220" r="4" fill="#FAFAFA" fill-opacity="0.15"/>
<circle cx="58" cy="238" r="4" fill="#FAFAFA" fill-opacity="0.15"/>
<circle cx="76" cy="40" r="4" fill="#FAFAFA" fill-opacity="0.15"/>
<circle cx="76" cy="58" r="4" fill="#FAFAFA" fill-opacity="0.15"/>
<circle cx="76" cy="76" r="4" fill="#FAFAFA" fill-opacity="0.15"/>
<circle cx="76" cy="94" r="4" fill="#FAFAFA" fill-opacity="0.15"/>
<circle cx="76" cy="112" r="4" fill="#FAFAFA" fill-opacity="0.15"/>
<circle cx="76" cy="130" r="4" fill="#FAFAFA" fill-opacity="0.15"/>
<circle cx="76" cy="256" r="4" fill="#FAFAFA" fill-opacity="0.15"/>
<circle cx="76" cy="274" r="4" fill="#FAFAFA" fill-opacity="0.15"/>
<circle cx="76" cy="292" r="4" fill="#FAFAFA" fill-opacity="0.15"/>
<circle cx="76" cy="310" r="4" fill="#FAFAFA" fill-opacity="0.15"/>
<circle cx="76" cy="328" r="4" fill="#FAFAFA" fill-opacity="0.15"/>
<circle cx="76" cy="346" r="4" fill="#FAFAFA" fill-opacity="0.15"/>
<circle cx="76" cy="148" r="4" fill="#FAFAFA" fill-opacity="0.15"/>
<circle cx="76" cy="166" r="4" fill="#FAFAFA" fill-opacity="0.15"/>
<circle cx="76" cy="184" r="4" fill="#FAFAFA" fill-opacity="0.15"/>
<circle cx="76" cy="202" r="4" fill="#FAFAFA" fill-opacity="0.15"/>
<circle cx="76" cy="220" r="4" fill="#FAFAFA" fill-opacity="0.15"/>
<circle cx="76" cy="238" r="4" fill="#FAFAFA" fill-opacity="0.15"/>
<circle cx="94" cy="58" r="4" fill="#FAFAFA" fill-opacity="0.15"/>
<circle cx="94" cy="76" r="4" fill="#FAFAFA" fill-opacity="0.15"/>
<circle cx="94" cy="94" r="4" fill="#FAFAFA" fill-opacity="0.15"/>
<circle cx="94" cy="112" r="4" fill="#FAFAFA" fill-opacity="0.15"/>
<circle cx="94" cy="130" r="4" fill="#FAFAFA" fill-opacity="0.15"/>
<circle cx="94" cy="148" r="4" fill="#FAFAFA" fill-opacity="0.15"/>
<circle cx="94" cy="274" r="4" fill="#FAFAFA" fill-opacity="0.15"/>
<circle cx="94" cy="292" r="4" fill="#FAFAFA" fill-opacity="0.15"/>
<circle cx="94" cy="310" r="4" fill="#FAFAFA" fill-opacity="0.15"/>
<circle cx="94" cy="328" r="4" fill="#FAFAFA" fill-opacity="0.15"/>
<circle cx="94" cy="346" r="4" fill="#FAFAFA" fill-opacity="0.15"/>
<circle cx="94" cy="364" r="4" fill="#FAFAFA" fill-opacity="0.15"/>
<circle cx="94" cy="166" r="4" fill="#FAFAFA" fill-opacity="0.15"/>
<circle cx="94" cy="184" r="4" fill="#FAFAFA" fill-opacity="0.15"/>
<circle cx="94" cy="202" r="4" fill="#FAFAFA" fill-opacity="0.15"/>
<circle cx="94" cy="220" r="4" fill="#FAFAFA" fill-opacity="0.15"/>
<circle cx="94" cy="238" r="4" fill="#FAFAFA" fill-opacity="0.15"/>
<circle cx="94" cy="256" r="4" fill="#FAFAFA" fill-opacity="0.15"/>
<circle cx="112" cy="58" r="4" fill="#FAFAFA" fill-opacity="0.15"/>
<circle cx="112" cy="76" r="4" fill="#FAFAFA" fill-opacity="0.15"/>
<circle cx="112" cy="94" r="4" fill="#FAFAFA" fill-opacity="0.15"/>
<circle cx="112" cy="112" r="4" fill="#FAFAFA" fill-opacity="0.15"/>
<circle cx="112" cy="130" r="4" fill="#FAFAFA" fill-opacity="0.15"/>
<circle cx="112" cy="148" r="4" fill="#FAFAFA" fill-opacity="0.15"/>
<circle cx="112" cy="274" r="4" fill="#FAFAFA" fill-opacity="0.15"/>
<circle cx="112" cy="292" r="4" fill="#FAFAFA" fill-opacity="0.15"/>
<circle cx="112" cy="310" r="4" fill="#FAFAFA" fill-opacity="0.15"/>
<circle cx="112" cy="328" r="4" fill="#FAFAFA" fill-opacity="0.15"/>
<circle cx="112" cy="346" r="4" fill="#FAFAFA" fill-opacity="0.15"/>
<circle cx="112" cy="364" r="4" fill="#FAFAFA" fill-opacity="0.15"/>
<circle cx="112" cy="166" r="4" fill="#FAFAFA" fill-opacity="0.15"/>
<circle cx="112" cy="184" r="4" fill="#FAFAFA" fill-opacity="0.15"/>
<circle cx="112" cy="202" r="4" fill="#FAFAFA" fill-opacity="0.15"/>
<circle cx="112" cy="220" r="4" fill="#FAFAFA" fill-opacity="0.15"/>
<circle cx="112" cy="238" r="4" fill="#FAFAFA" fill-opacity="0.15"/>
<circle cx="112" cy="256" r="4" fill="#FAFAFA" fill-opacity="0.15"/>
<circle cx="130" cy="76" r="4" fill="#FAFAFA" fill-opacity="0.15"/>
<circle cx="130" cy="94" r="4" fill="#FAFAFA" fill-opacity="0.15"/>
<circle cx="130" cy="112" r="4" fill="#FAFAFA" fill-opacity="0.15"/>
<circle cx="130" cy="130" r="4" fill="#FAFAFA" fill-opacity="0.15"/>
<circle cx="130" cy="148" r="4" fill="#FAFAFA" fill-opacity="0.15"/>
<circle cx="130" cy="166" r="4" fill="#FAFAFA" fill-opacity="0.15"/>
<circle cx="130" cy="292" r="4" fill="#FAFAFA" fill-opacity="0.15"/>
<circle cx="130" cy="310" r="4" fill="#FAFAFA" fill-opacity="0.15"/>
<circle cx="130" cy="328" r="4" fill="#FAFAFA" fill-opacity="0.15"/>
<circle cx="130" cy="346" r="4" fill="#FAFAFA" fill-opacity="0.15"/>
<circle cx="130" cy="364" r="4" fill="#FAFAFA" fill-opacity="0.15"/>
<circle cx="130" cy="382" r="4" fill="#FAFAFA" fill-opacity="0.15"/>
<circle cx="130" cy="184" r="4" fill="#FAFAFA" fill-opacity="0.15"/>
<circle cx="130" cy="202" r="4" fill="#FAFAFA" fill-opacity="0.15"/>
<circle cx="130" cy="220" r="4" fill="#FAFAFA" fill-opacity="0.15"/>
<circle cx="130" cy="238" r="4" fill="#FAFAFA" fill-opacity="0.15"/>
<circle cx="130" cy="256" r="4" fill="#FAFAFA" fill-opacity="0.15"/>
<circle cx="130" cy="274" r="4" fill="#FAFAFA" fill-opacity="0.15"/>
<circle cx="148" cy="76" r="4" fill="#FAFAFA" fill-opacity="0.15"/>
<circle cx="148" cy="94" r="4" fill="#FAFAFA" fill-opacity="0.15"/>
<circle cx="148" cy="112" r="4" fill="#FAFAFA" fill-opacity="0.15"/>
<circle cx="148" cy="130" r="4" fill="#FAFAFA" fill-opacity="0.15"/>
<circle cx="148" cy="148" r="4" fill="#FAFAFA" fill-opacity="0.15"/>
<circle cx="148" cy="166" r="4" fill="#FAFAFA" fill-opacity="0.15"/>
<circle cx="148" cy="292" r="4" fill="#FAFAFA" fill-opacity="0.15"/>
<circle cx="148" cy="310" r="4" fill="#FAFAFA" fill-opacity="0.15"/>
<circle cx="148" cy="328" r="4" fill="#FAFAFA" fill-opacity="0.15"/>
<circle cx="148" cy="346" r="4" fill="#FAFAFA" fill-opacity="0.15"/>
<circle cx="148" cy="364" r="4" fill="#FAFAFA" fill-opacity="0.15"/>
<circle cx="148" cy="382" r="4" fill="#FAFAFA" fill-opacity="0.15"/>
<circle cx="148" cy="184" r="4" fill="#FAFAFA" fill-opacity="0.15"/>
<circle cx="148" cy="202" r="4" fill="#FAFAFA" fill-opacity="0.15"/>
<circle cx="148" cy="220" r="4" fill="#FAFAFA" fill-opacity="0.15"/>
<circle cx="148" cy="238" r="4" fill="#FAFAFA" fill-opacity="0.15"/>
<circle cx="148" cy="256" r="4" fill="#FAFAFA" fill-opacity="0.15"/>
<circle cx="148" cy="274" r="4" fill="#FAFAFA" fill-opacity="0.15"/>
<circle cx="166" cy="94" r="4" fill="#FAFAFA" fill-opacity="0.15"/>
<circle cx="166" cy="112" r="4" fill="#FAFAFA" fill-opacity="0.15"/>
<circle cx="166" cy="130" r="4" fill="#FAFAFA" fill-opacity="0.15"/>
<circle cx="166" cy="148" r="4" fill="#FAFAFA" fill-opacity="0.15"/>
<circle cx="166" cy="166" r="4" fill="#FAFAFA" fill-opacity="0.15"/>
<circle cx="166" cy="184" r="4" fill="#FAFAFA" fill-opacity="0.15"/>
<circle cx="166" cy="310" r="4" fill="#FAFAFA" fill-opacity="0.15"/>
<circle cx="166" cy="328" r="4" fill="#FAFAFA" fill-opacity="0.15"/>
<circle cx="166" cy="346" r="4" fill="#FAFAFA" fill-opacity="0.15"/>
<circle cx="166" cy="364" r="4" fill="#FAFAFA" fill-opacity="0.15"/>
<circle cx="166" cy="382" r="4" fill="#FAFAFA" fill-opacity="0.15"/>
<circle cx="166" cy="400" r="4" fill="#FAFAFA" fill-opacity="0.15"/>
<circle cx="166" cy="202" r="4" fill="#FAFAFA" fill-opacity="0.15"/>
<circle cx="166" cy="220" r="4" fill="#FAFAFA" fill-opacity="0.15"/>
<circle cx="166" cy="238" r="4" fill="#FAFAFA" fill-opacity="0.15"/>
<circle cx="166" cy="256" r="4" fill="#FAFAFA" fill-opacity="0.15"/>
<circle cx="166" cy="274" r="4" fill="#FAFAFA" fill-opacity="0.15"/>
<circle cx="166" cy="292" r="4" fill="#FAFAFA" fill-opacity="0.15"/>
<circle cx="184" cy="94" r="4" fill="#FAFAFA" fill-opacity="0.15"/>
<circle cx="184" cy="112" r="4" fill="#FAFAFA" fill-opacity="0.15"/>
<circle cx="184" cy="130" r="4" fill="#FAFAFA" fill-opacity="0.15"/>
<circle cx="184" cy="148" r="4" fill="#FAFAFA" fill-opacity="0.15"/>
<circle cx="184" cy="166" r="4" fill="#FAFAFA" fill-opacity="0.15"/>
<circle cx="184" cy="184" r="4" fill="#FAFAFA" fill-opacity="0.15"/>
<circle cx="184" cy="310" r="4" fill="#FAFAFA" fill-opacity="0.15"/>
<circle cx="184" cy="328" r="4" fill="#FAFAFA" fill-opacity="0.15"/>
<circle cx="184" cy="346" r="4" fill="#FAFAFA" fill-opacity="0.15"/>
<circle cx="184" cy="364" r="4" fill="#FAFAFA" fill-opacity="0.15"/>
<circle cx="184" cy="382" r="4" fill="#FAFAFA" fill-opacity="0.15"/>
<circle cx="184" cy="400" r="4" fill="#FAFAFA" fill-opacity="0.15"/>
<circle cx="184" cy="202" r="4" fill="#FAFAFA" fill-opacity="0.15"/>
<circle cx="184" cy="220" r="4" fill="#FAFAFA" fill-opacity="0.15"/>
<circle cx="184" cy="238" r="4" fill="#FAFAFA" fill-opacity="0.15"/>
<circle cx="184" cy="256" r="4" fill="#FAFAFA" fill-opacity="0.15"/>
<circle cx="184" cy="274" r="4" fill="#FAFAFA" fill-opacity="0.15"/>
<circle cx="184" cy="292" r="4" fill="#FAFAFA" fill-opacity="0.15"/>
<circle cx="202" cy="112" r="4" fill="#FAFAFA" fill-opacity="0.15"/>
<circle cx="202" cy="130" r="4" fill="#FAFAFA" fill-opacity="0.15"/>
<circle cx="202" cy="148" r="4" fill="#FAFAFA" fill-opacity="0.15"/>
<circle cx="202" cy="166" r="4" fill="#FAFAFA" fill-opacity="0.15"/>
<circle cx="202" cy="184" r="4" fill="#FAFAFA" fill-opacity="0.15"/>
<circle cx="202" cy="202" r="4" fill="#FAFAFA" fill-opacity="0.15"/>
<circle cx="202" cy="328" r="4" fill="#FAFAFA" fill-opacity="0.15"/>
<circle cx="202" cy="346" r="4" fill="#FAFAFA" fill-opacity="0.15"/>
<circle cx="202" cy="364" r="4" fill="#FAFAFA" fill-opacity="0.15"/>
<circle cx="202" cy="382" r="4" fill="#FAFAFA" fill-opacity="0.15"/>
<circle cx="202" cy="400" r="4" fill="#FAFAFA" fill-opacity="0.15"/>
<circle cx="202" cy="418" r="4" fill="#FAFAFA" fill-opacity="0.15"/>
<circle cx="202" cy="220" r="4" fill="#FAFAFA" fill-opacity="0.15"/>
<circle cx="202" cy="238" r="4" fill="#FAFAFA" fill-opacity="0.15"/>
<circle cx="202" cy="256" r="4" fill="#FAFAFA" fill-opacity="0.15"/>
<circle cx="202" cy="274" r="4" fill="#FAFAFA" fill-opacity="0.15"/>
<circle cx="202" cy="292" r="4" fill="#FAFAFA" fill-opacity="0.15"/>
<circle cx="202" cy="310" r="4" fill="#FAFAFA" fill-opacity="0.15"/>
<circle cx="220" cy="112" r="4" fill="#FAFAFA" fill-opacity="0.15"/>
<circle cx="220" cy="130" r="4" fill="#FAFAFA" fill-opacity="0.15"/>
<circle cx="220" cy="148" r="4" fill="#FAFAFA" fill-opacity="0.15"/>
<circle cx="220" cy="166" r="4" fill="#FAFAFA" fill-opacity="0.15"/>
<circle cx="220" cy="184" r="4" fill="#FAFAFA" fill-opacity="0.15"/>
<circle cx="220" cy="202" r="4" fill="#FAFAFA" fill-opacity="0.15"/>
<circle cx="220" cy="328" r="4" fill="#FAFAFA" fill-opacity="0.15"/>
<circle cx="220" cy="346" r="4" fill="#FAFAFA" fill-opacity="0.15"/>
<circle cx="220" cy="364" r="4" fill="#FAFAFA" fill-opacity="0.15"/>
<circle cx="220" cy="382" r="4" fill="#FAFAFA" fill-opacity="0.15"/>
<circle cx="220" cy="400" r="4" fill="#FAFAFA" fill-opacity="0.15"/>
<circle cx="220" cy="418" r="4" fill="#FAFAFA" fill-opacity="0.15"/>
<circle cx="220" cy="220" r="4" fill="#FAFAFA" fill-opacity="0.15"/>
<circle cx="220" cy="238" r="4" fill="#FAFAFA" fill-opacity="0.15"/>
<circle cx="220" cy="256" r="4" fill="#FAFAFA" fill-opacity="0.15"/>
<circle cx="220" cy="274" r="4" fill="#FAFAFA" fill-opacity="0.15"/>
<circle cx="220" cy="292" r="4" fill="#FAFAFA" fill-opacity="0.15"/>
<circle cx="220" cy="310" r="4" fill="#FAFAFA" fill-opacity="0.15"/>
<circle cx="238" cy="130" r="4" fill="#FAFAFA" fill-opacity="0.15"/>
<circle cx="238" cy="148" r="4" fill="#FAFAFA" fill-opacity="0.15"/>
<circle cx="238" cy="166" r="4" fill="#FAFAFA" fill-opacity="0.15"/>
<circle cx="238" cy="184" r="4" fill="#FAFAFA" fill-opacity="0.15"/>
<circle cx="238" cy="202" r="4" fill="#FAFAFA" fill-opacity="0.15"/>
<circle cx="238" cy="220" r="4" fill="#FAFAFA" fill-opacity="0.15"/>
<circle cx="238" cy="346" r="4" fill="#FAFAFA" fill-opacity="0.15"/>
<circle cx="238" cy="364" r="4" fill="#FAFAFA" fill-opacity="0.15"/>
<circle cx="238" cy="382" r="4" fill="#FAFAFA" fill-opacity="0.15"/>
<circle cx="238" cy="400" r="4" fill="#FAFAFA" fill-opacity="0.15"/>
<circle cx="238" cy="418" r="4" fill="#FAFAFA" fill-opacity="0.15"/>
<circle cx="238" cy="436" r="4" fill="#FAFAFA" fill-opacity="0.15"/>
<circle cx="238" cy="238" r="4" fill="#FAFAFA" fill-opacity="0.15"/>
<circle cx="238" cy="256" r="4" fill="#FAFAFA" fill-opacity="0.15"/>
<circle cx="238" cy="274" r="4" fill="#FAFAFA" fill-opacity="0.15"/>
<circle cx="238" cy="292" r="4" fill="#FAFAFA" fill-opacity="0.15"/>
<circle cx="238" cy="310" r="4" fill="#FAFAFA" fill-opacity="0.15"/>
<circle cx="238" cy="328" r="4" fill="#FAFAFA" fill-opacity="0.15"/>
<circle cx="256" cy="130" r="4" fill="#FAFAFA" fill-opacity="0.15"/>
<circle cx="256" cy="148" r="4" fill="#FAFAFA" fill-opacity="0.15"/>
<circle cx="256" cy="166" r="4" fill="#FAFAFA" fill-opacity="0.15"/>
<circle cx="256" cy="184" r="4" fill="#FAFAFA" fill-opacity="0.15"/>
<circle cx="256" cy="202" r="4" fill="#FAFAFA" fill-opacity="0.15"/>
<circle cx="256" cy="220" r="4" fill="#FAFAFA" fill-opacity="0.15"/>
<circle cx="256" cy="346" r="4" fill="#FAFAFA" fill-opacity="0.15"/>
<circle cx="256" cy="364" r="4" fill="#FAFAFA" fill-opacity="0.15"/>
<circle cx="256" cy="382" r="4" fill="#FAFAFA" fill-opacity="0.15"/>
<circle cx="256" cy="400" r="4" fill="#FAFAFA" fill-opacity="0.15"/>
<circle cx="256" cy="418" r="4" fill="#FAFAFA" fill-opacity="0.15"/>
<circle cx="256" cy="436" r="4" fill="#FAFAFA" fill-opacity="0.15"/>
<circle cx="256" cy="238" r="4" fill="#FAFAFA" fill-opacity="0.15"/>
<circle cx="256" cy="256" r="4" fill="#FAFAFA" fill-opacity="0.15"/>
<circle cx="256" cy="274" r="4" fill="#FAFAFA" fill-opacity="0.15"/>
<circle cx="256" cy="292" r="4" fill="#FAFAFA" fill-opacity="0.15"/>
<circle cx="256" cy="310" r="4" fill="#FAFAFA" fill-opacity="0.15"/>
<circle cx="256" cy="328" r="4" fill="#FAFAFA" fill-opacity="0.15"/>
<circle cx="274" cy="148" r="4" fill="#FAFAFA" fill-opacity="0.15"/>
<circle cx="274" cy="166" r="4" fill="#FAFAFA" fill-opacity="0.15"/>
<circle cx="274" cy="184" r="4" fill="#FAFAFA" fill-opacity="0.15"/>
<circle cx="274" cy="202" r="4" fill="#FAFAFA" fill-opacity="0.15"/>
<circle cx="274" cy="220" r="4" fill="#FAFAFA" fill-opacity="0.15"/>
<circle cx="274" cy="238" r="4" fill="#FAFAFA" fill-opacity="0.15"/>
<circle cx="274" cy="364" r="4" fill="#FAFAFA" fill-opacity="0.15"/>
<circle cx="274" cy="382" r="4" fill="#FAFAFA" fill-opacity="0.15"/>
<circle cx="274" cy="400" r="4" fill="#FAFAFA" fill-opacity="0.15"/>
<circle cx="274" cy="418" r="4" fill="#FAFAFA" fill-opacity="0.15"/>
<circle cx="274" cy="436" r="4" fill="#FAFAFA" fill-opacity="0.15"/>
<circle cx="274" cy="454" r="4" fill="#FAFAFA" fill-opacity="0.15"/>
<circle cx="274" cy="256" r="4" fill="#FAFAFA" fill-opacity="0.15"/>
<circle cx="274" cy="274" r="4" fill="#FAFAFA" fill-opacity="0.15"/>
<circle cx="274" cy="292" r="4" fill="#FAFAFA" fill-opacity="0.15"/>
<circle cx="274" cy="310" r="4" fill="#FAFAFA" fill-opacity="0.15"/>
<circle cx="274" cy="328" r="4" fill="#FAFAFA" fill-opacity="0.15"/>
<circle cx="274" cy="346" r="4" fill="#FAFAFA" fill-opacity="0.15"/>
<circle cx="292" cy="148" r="4" fill="#FAFAFA" fill-opacity="0.15"/>
<circle cx="292" cy="166" r="4" fill="#FAFAFA" fill-opacity="0.15"/>
<circle cx="292" cy="184" r="4" fill="#FAFAFA" fill-opacity="0.15"/>
<circle cx="292" cy="202" r="4" fill="#FAFAFA" fill-opacity="0.15"/>
<circle cx="292" cy="220" r="4" fill="#FAFAFA" fill-opacity="0.15"/>
<circle cx="292" cy="238" r="4" fill="#FAFAFA" fill-opacity="0.15"/>
<circle cx="292" cy="364" r="4" fill="#FAFAFA" fill-opacity="0.15"/>
<circle cx="292" cy="382" r="4" fill="#FAFAFA" fill-opacity="0.15"/>
<circle cx="292" cy="400" r="4" fill="#FAFAFA" fill-opacity="0.15"/>
<circle cx="292" cy="418" r="4" fill="#FAFAFA" fill-opacity="0.15"/>
<circle cx="292" cy="436" r="4" fill="#FAFAFA" fill-opacity="0.15"/>
<circle cx="292" cy="454" r="4" fill="#FAFAFA" fill-opacity="0.15"/>
<circle cx="292" cy="256" r="4" fill="#FAFAFA" fill-opacity="0.15"/>
<circle cx="292" cy="274" r="4" fill="#FAFAFA" fill-opacity="0.15"/>
<circle cx="292" cy="292" r="4" fill="#FAFAFA" fill-opacity="0.15"/>
<circle cx="292" cy="310" r="4" fill="#FAFAFA" fill-opacity="0.15"/>
<circle cx="292" cy="328" r="4" fill="#FAFAFA" fill-opacity="0.15"/>
<circle cx="292" cy="346" r="4" fill="#FAFAFA" fill-opacity="0.15"/>
<circle cx="310" cy="166" r="4" fill="#FAFAFA" fill-opacity="0.15"/>
<circle cx="310" cy="184" r="4" fill="#FAFAFA" fill-opacity="0.15"/>
<circle cx="310" cy="202" r="4" fill="#FAFAFA" fill-opacity="0.15"/>
<circle cx="310" cy="220" r="4" fill="#FAFAFA" fill-opacity="0.15"/>
<circle cx="310" cy="238" r="4" fill="#FAFAFA" fill-opacity="0.15"/>
<circle cx="310" cy="256" r="4" fill="#FAFAFA" fill-opacity="0.15"/>
<circle cx="310" cy="382" r="4" fill="#FAFAFA" fill-opacity="0.15"/>
<circle cx="310" cy="400" r="4" fill="#FAFAFA" fill-opacity="0.15"/>
<circle cx="310" cy="418" r="4" fill="#FAFAFA" fill-opacity="0.15"/>
<circle cx="310" cy="436" r="4" fill="#FAFAFA" fill-opacity="0.15"/>
<circle cx="310" cy="454" r="4" fill="#FAFAFA" fill-opacity="0.15"/>
<circle cx="310" cy="472" r="4" fill="#FAFAFA" fill-opacity="0.15"/>
<circle cx="310" cy="490" r="4" fill="#FAFAFA" fill-opacity="0.15"/>
<circle cx="310" cy="508" r="4" fill="#FAFAFA" fill-opacity="0.15"/>
<circle cx="310" cy="526" r="4" fill="#FAFAFA" fill-opacity="0.15"/>
<circle cx="310" cy="544" r="4" fill="#FAFAFA" fill-opacity="0.15"/>
<circle cx="310" cy="274" r="4" fill="#FAFAFA" fill-opacity="0.15"/>
<circle cx="310" cy="292" r="4" fill="#FAFAFA" fill-opacity="0.15"/>
<circle cx="310" cy="310" r="4" fill="#FAFAFA" fill-opacity="0.15"/>
<circle cx="310" cy="328" r="4" fill="#FAFAFA" fill-opacity="0.15"/>
<circle cx="310" cy="346" r="4" fill="#FAFAFA" fill-opacity="0.15"/>
<circle cx="310" cy="364" r="4" fill="#FAFAFA" fill-opacity="0.15"/>
<circle cx="328" cy="166" r="4" fill="#FAFAFA" fill-opacity="0.15"/>
<circle cx="328" cy="184" r="4" fill="#FAFAFA" fill-opacity="0.15"/>
<circle cx="328" cy="202" r="4" fill="#FAFAFA" fill-opacity="0.15"/>
<circle cx="328" cy="220" r="4" fill="#FAFAFA" fill-opacity="0.15"/>
<circle cx="328" cy="238" r="4" fill="#FAFAFA" fill-opacity="0.15"/>
<circle cx="328" cy="256" r="4" fill="#FAFAFA" fill-opacity="0.15"/>
<circle cx="328" cy="382" r="4" fill="#FAFAFA" fill-opacity="0.15"/>
<circle cx="328" cy="400" r="4" fill="#FAFAFA" fill-opacity="0.15"/>
<circle cx="328" cy="418" r="4" fill="#FAFAFA" fill-opacity="0.15"/>
<circle cx="328" cy="436" r="4" fill="#FAFAFA" fill-opacity="0.15"/>
<circle cx="328" cy="454" r="4" fill="#FAFAFA" fill-opacity="0.15"/>
<circle cx="328" cy="472" r="4" fill="#FAFAFA" fill-opacity="0.15"/>
<circle cx="328" cy="490" r="4" fill="#FAFAFA" fill-opacity="0.15"/>
<circle cx="328" cy="508" r="4" fill="#FAFAFA" fill-opacity="0.15"/>
<circle cx="328" cy="526" r="4" fill="#FAFAFA" fill-opacity="0.15"/>
<circle cx="328" cy="544" r="4" fill="#FAFAFA" fill-opacity="0.15"/>
<circle cx="328" cy="274" r="4" fill="#FAFAFA" fill-opacity="0.15"/>
<circle cx="328" cy="292" r="4" fill="#FAFAFA" fill-opacity="0.15"/>
<circle cx="328" cy="310" r="4" fill="#FAFAFA" fill-opacity="0.15"/>
<circle cx="328" cy="328" r="4" fill="#FAFAFA" fill-opacity="0.15"/>
<circle cx="328" cy="346" r="4" fill="#FAFAFA" fill-opacity="0.15"/>
<circle cx="328" cy="364" r="4" fill="#FAFAFA" fill-opacity="0.15"/>
<circle cx="346" cy="184" r="4" fill="#FAFAFA" fill-opacity="0.15"/>
<circle cx="346" cy="202" r="4" fill="#FAFAFA" fill-opacity="0.15"/>
<circle cx="346" cy="220" r="4" fill="#FAFAFA" fill-opacity="0.15"/>
<circle cx="346" cy="238" r="4" fill="#FAFAFA" fill-opacity="0.15"/>
<circle cx="346" cy="256" r="4" fill="#FAFAFA" fill-opacity="0.15"/>
<circle cx="346" cy="274" r="4" fill="#FAFAFA" fill-opacity="0.15"/>
<circle cx="346" cy="400" r="4" fill="#FAFAFA" fill-opacity="0.15"/>
<circle cx="346" cy="418" r="4" fill="#FAFAFA" fill-opacity="0.15"/>
<circle cx="346" cy="436" r="4" fill="#FAFAFA" fill-opacity="0.15"/>
<circle cx="346" cy="454" r="4" fill="#FAFAFA" fill-opacity="0.15"/>
<circle cx="346" cy="472" r="4" fill="#FAFAFA" fill-opacity="0.15"/>
<circle cx="346" cy="490" r="4" fill="#FAFAFA" fill-opacity="0.15"/>
<circle cx="346" cy="508" r="4" fill="#FAFAFA" fill-opacity="0.15"/>
<circle cx="346" cy="526" r="4" fill="#FAFAFA" fill-opacity="0.15"/>
<circle cx="346" cy="544" r="4" fill="#FAFAFA" fill-opacity="0.15"/>
<circle cx="346" cy="562" r="4" fill="#FAFAFA" fill-opacity="0.15"/>
<circle cx="346" cy="292" r="4" fill="#FAFAFA" fill-opacity="0.15"/>
<circle cx="346" cy="310" r="4" fill="#FAFAFA" fill-opacity="0.15"/>
<circle cx="346" cy="328" r="4" fill="#FAFAFA" fill-opacity="0.15"/>
<circle cx="346" cy="346" r="4" fill="#FAFAFA" fill-opacity="0.15"/>
<circle cx="346" cy="364" r="4" fill="#FAFAFA" fill-opacity="0.15"/>
<circle cx="346" cy="382" r="4" fill="#FAFAFA" fill-opacity="0.15"/>
<circle cx="364" cy="184" r="4" fill="#FAFAFA" fill-opacity="0.15"/>
<circle cx="364" cy="202" r="4" fill="#FAFAFA" fill-opacity="0.15"/>
<circle cx="364" cy="220" r="4" fill="#FAFAFA" fill-opacity="0.15"/>
<circle cx="364" cy="238" r="4" fill="#FAFAFA" fill-opacity="0.15"/>
<circle cx="364" cy="256" r="4" fill="#FAFAFA" fill-opacity="0.15"/>
<circle cx="364" cy="274" r="4" fill="#FAFAFA" fill-opacity="0.15"/>
<circle cx="364" cy="400" r="4" fill="#FAFAFA" fill-opacity="0.15"/>
<circle cx="364" cy="418" r="4" fill="#FAFAFA" fill-opacity="0.15"/>
<circle cx="364" cy="436" r="4" fill="#FAFAFA" fill-opacity="0.15"/>
<circle cx="364" cy="508" r="4" fill="#FAFAFA" fill-opacity="0.15"/>
<circle cx="364" cy="454" r="4" fill="#FAFAFA" fill-opacity="0.15"/>
<circle cx="364" cy="526" r="4" fill="#FAFAFA" fill-opacity="0.15"/>
<circle cx="364" cy="472" r="4" fill="#FAFAFA" fill-opacity="0.15"/>
<circle cx="364" cy="544" r="4" fill="#FAFAFA" fill-opacity="0.15"/>
<circle cx="364" cy="490" r="4" fill="#FAFAFA" fill-opacity="0.15"/>
<circle cx="364" cy="562" r="4" fill="#FAFAFA" fill-opacity="0.15"/>
<circle cx="364" cy="292" r="4" fill="#FAFAFA" fill-opacity="0.15"/>
<circle cx="364" cy="310" r="4" fill="#FAFAFA" fill-opacity="0.15"/>
<circle cx="364" cy="328" r="4" fill="#FAFAFA" fill-opacity="0.15"/>
<circle cx="364" cy="346" r="4" fill="#FAFAFA" fill-opacity="0.15"/>
<circle cx="364" cy="364" r="4" fill="#FAFAFA" fill-opacity="0.15"/>
<circle cx="364" cy="382" r="4" fill="#FAFAFA" fill-opacity="0.15"/>
<circle cx="382" cy="202" r="4" fill="#FAFAFA" fill-opacity="0.15"/>
<circle cx="382" cy="220" r="4" fill="#FAFAFA" fill-opacity="0.15"/>
<circle cx="382" cy="238" r="4" fill="#FAFAFA" fill-opacity="0.15"/>
<circle cx="382" cy="256" r="4" fill="#FAFAFA" fill-opacity="0.15"/>
<circle cx="382" cy="274" r="4" fill="#FAFAFA" fill-opacity="0.15"/>
<circle cx="382" cy="292" r="4" fill="#FAFAFA" fill-opacity="0.15"/>
<circle cx="382" cy="418" r="4" fill="#FAFAFA" fill-opacity="0.15"/>
<circle cx="382" cy="436" r="4" fill="#FAFAFA" fill-opacity="0.15"/>
<circle cx="382" cy="454" r="4" fill="#FAFAFA" fill-opacity="0.15"/>
<circle cx="382" cy="526" r="4" fill="#FAFAFA" fill-opacity="0.15"/>
<circle cx="382" cy="472" r="4" fill="#FAFAFA" fill-opacity="0.15"/>
<circle cx="382" cy="544" r="4" fill="#FAFAFA" fill-opacity="0.15"/>
<circle cx="382" cy="490" r="4" fill="#FAFAFA" fill-opacity="0.15"/>
<circle cx="382" cy="562" r="4" fill="#FAFAFA" fill-opacity="0.15"/>
<circle cx="382" cy="508" r="4" fill="#FAFAFA" fill-opacity="0.15"/>
<circle cx="382" cy="580" r="4" fill="#FAFAFA" fill-opacity="0.15"/>
<circle cx="382" cy="310" r="4" fill="#FAFAFA" fill-opacity="0.15"/>
<circle cx="382" cy="328" r="4" fill="#FAFAFA" fill-opacity="0.15"/>
<circle cx="382" cy="346" r="4" fill="#FAFAFA" fill-opacity="0.15"/>
<circle cx="382" cy="364" r="4" fill="#FAFAFA" fill-opacity="0.15"/>
<circle cx="382" cy="382" r="4" fill="#FAFAFA" fill-opacity="0.15"/>
<circle cx="382" cy="400" r="4" fill="#FAFAFA" fill-opacity="0.15"/>
<circle cx="400" cy="202" r="4" fill="#FAFAFA" fill-opacity="0.15"/>
<circle cx="400" cy="220" r="4" fill="#FAFAFA" fill-opacity="0.15"/>
<circle cx="400" cy="238" r="4" fill="#FAFAFA" fill-opacity="0.15"/>
<circle cx="400" cy="256" r="4" fill="#FAFAFA" fill-opacity="0.15"/>
<circle cx="400" cy="274" r="4" fill="#FAFAFA" fill-opacity="0.15"/>
<circle cx="400" cy="292" r="4" fill="#FAFAFA" fill-opacity="0.15"/>
<circle cx="400" cy="418" r="4" fill="#FAFAFA" fill-opacity="0.15"/>
<circle cx="400" cy="436" r="4" fill="#FAFAFA" fill-opacity="0.15"/>
<circle cx="400" cy="454" r="4" fill="#FAFAFA" fill-opacity="0.15"/>
<circle cx="400" cy="526" r="4" fill="#FAFAFA" fill-opacity="0.15"/>
<circle cx="400" cy="472" r="4" fill="#FAFAFA" fill-opacity="0.15"/>
<circle cx="400" cy="544" r="4" fill="#FAFAFA" fill-opacity="0.15"/>
<circle cx="400" cy="490" r="4" fill="#FAFAFA" fill-opacity="0.15"/>
<circle cx="400" cy="562" r="4" fill="#FAFAFA" fill-opacity="0.15"/>
<circle cx="400" cy="508" r="4" fill="#FAFAFA" fill-opacity="0.15"/>
<circle cx="400" cy="580" r="4" fill="#FAFAFA" fill-opacity="0.15"/>
<circle cx="400" cy="310" r="4" fill="#FAFAFA" fill-opacity="0.15"/>
<circle cx="400" cy="328" r="4" fill="#FAFAFA" fill-opacity="0.15"/>
<circle cx="400" cy="346" r="4" fill="#FAFAFA" fill-opacity="0.15"/>
<circle cx="400" cy="364" r="4" fill="#FAFAFA" fill-opacity="0.15"/>
<circle cx="400" cy="382" r="4" fill="#FAFAFA" fill-opacity="0.15"/>
<circle cx="400" cy="400" r="4" fill="#FAFAFA" fill-opacity="0.15"/>
<circle cx="418" cy="220" r="4" fill="#FAFAFA" fill-opacity="0.15"/>
<circle cx="418" cy="238" r="4" fill="#FAFAFA" fill-opacity="0.15"/>
<circle cx="418" cy="256" r="4" fill="#FAFAFA" fill-opacity="0.15"/>
<circle cx="418" cy="274" r="4" fill="#FAFAFA" fill-opacity="0.15"/>
<circle cx="418" cy="292" r="4" fill="#FAFAFA" fill-opacity="0.15"/>
<circle cx="418" cy="310" r="4" fill="#FAFAFA" fill-opacity="0.15"/>
<circle cx="418" cy="436" r="4" fill="#FAFAFA" fill-opacity="0.15"/>
<circle cx="418" cy="454" r="4" fill="#FAFAFA" fill-opacity="0.15"/>
<circle cx="418" cy="472" r="4" fill="#FAFAFA" fill-opacity="0.15"/>
<circle cx="418" cy="544" r="4" fill="#FAFAFA" fill-opacity="0.15"/>
<circle cx="418" cy="490" r="4" fill="#FAFAFA" fill-opacity="0.15"/>
<circle cx="418" cy="562" r="4" fill="#FAFAFA" fill-opacity="0.15"/>
<circle cx="418" cy="508" r="4" fill="#FAFAFA" fill-opacity="0.15"/>
<circle cx="418" cy="580" r="4" fill="#FAFAFA" fill-opacity="0.15"/>
<circle cx="418" cy="526" r="4" fill="#FAFAFA" fill-opacity="0.15"/>
<circle cx="418" cy="598" r="4" fill="#FAFAFA" fill-opacity="0.15"/>
<circle cx="418" cy="328" r="4" fill="#FAFAFA" fill-opacity="0.15"/>
<circle cx="418" cy="346" r="4" fill="#FAFAFA" fill-opacity="0.15"/>
<circle cx="418" cy="364" r="4" fill="#FAFAFA" fill-opacity="0.15"/>
<circle cx="418" cy="382" r="4" fill="#FAFAFA" fill-opacity="0.15"/>
<circle cx="418" cy="400" r="4" fill="#FAFAFA" fill-opacity="0.15"/>
<circle cx="418" cy="418" r="4" fill="#FAFAFA" fill-opacity="0.15"/>
<circle cx="436" cy="220" r="4" fill="#FAFAFA" fill-opacity="0.15"/>
<circle cx="436" cy="238" r="4" fill="#FAFAFA" fill-opacity="0.15"/>
<circle cx="436" cy="256" r="4" fill="#FAFAFA" fill-opacity="0.15"/>
<circle cx="436" cy="274" r="4" fill="#FAFAFA" fill-opacity="0.15"/>
<circle cx="436" cy="292" r="4" fill="#FAFAFA" fill-opacity="0.15"/>
<circle cx="436" cy="310" r="4" fill="#FAFAFA" fill-opacity="0.15"/>
<circle cx="436" cy="436" r="4" fill="#FAFAFA" fill-opacity="0.15"/>
<circle cx="436" cy="454" r="4" fill="#FAFAFA" fill-opacity="0.15"/>
<circle cx="436" cy="472" r="4" fill="#FAFAFA" fill-opacity="0.15"/>
<circle cx="436" cy="544" r="4" fill="#FAFAFA" fill-opacity="0.15"/>
<circle cx="436" cy="490" r="4" fill="#FAFAFA" fill-opacity="0.15"/>
<circle cx="436" cy="562" r="4" fill="#FAFAFA" fill-opacity="0.15"/>
<circle cx="436" cy="508" r="4" fill="#FAFAFA" fill-opacity="0.15"/>
<circle cx="436" cy="580" r="4" fill="#FAFAFA" fill-opacity="0.15"/>
<circle cx="436" cy="526" r="4" fill="#FAFAFA" fill-opacity="0.15"/>
<circle cx="436" cy="598" r="4" fill="#FAFAFA" fill-opacity="0.15"/>
<circle cx="436" cy="328" r="4" fill="#FAFAFA" fill-opacity="0.15"/>
<circle cx="436" cy="346" r="4" fill="#FAFAFA" fill-opacity="0.15"/>
<circle cx="436" cy="364" r="4" fill="#FAFAFA" fill-opacity="0.15"/>
<circle cx="436" cy="382" r="4" fill="#FAFAFA" fill-opacity="0.15"/>
<circle cx="436" cy="400" r="4" fill="#FAFAFA" fill-opacity="0.15"/>
<circle cx="436" cy="418" r="4" fill="#FAFAFA" fill-opacity="0.15"/>
</svg>
